# xmcd
#
# Track frame offsets:
#	150
#	16527
#	40671
#	61824
#	82035
#	102996
#	129120
#	149021
#	168507
#	187677
#	208465
#	226245
#	248647
#	269699
#
# Disc length: 3854 seconds
#
# Revision: 3
# Processed by: cddbd v1.5.2PL0 Copyright (c) Steve Scherf et al.
# Submitted via: EZCDAudioConverter 8.0.2.1
#
DISCID=b90f0c0e
DTITLE=Đàm Vĩnh Hưng - 3H [CD2)
DYEAR=2010
DGENRE=World Pop
TTITLE0=Within you'll remain
TTITLE1=Tình ơi xin ngủ yên
TTITLE2=Góc phố rêu xanh
TTITLE3=Trái tim sỏi đá
TTITLE4=Hết rồi
TTITLE5=Một thời đã xa
TTITLE6=Muộn
TTITLE7=Trái tim tình si
TTITLE8=Rồi mai thức giấc
TTITLE9=Bình minh sẽ mang em đi
TTITLE10=Giây phút chia xa
TTITLE11=Chén đắng
TTITLE12=Không phải em
TTITLE13=Cô đơn mình anh
EXTD=
EXTT0=
EXTT1=
EXTT2=
EXTT3=
EXTT4=
EXTT5=
EXTT6=
EXTT7=
EXTT8=
EXTT9=
EXTT10=
EXTT11=
EXTT12=
EXTT13=
PLAYORDER=
